<svg width="32" height="32" viewBox="0 0 32 32" fill="none" xmlns="http://www.w3.org/2000/svg">
<path d="M0 4C0 1.79086 1.79086 0 4 0H28C30.2091 0 32 1.79086 32 4V28C32 30.2091 30.2091 32 28 32H4C1.79086 32 0 30.2091 0 28V4Z" fill="#002677"/>
<path d="M24.4 7.6C23.8667 7.06666 23.0667 7.06666 22.5333 7.6L16 14.1333L9.46667 7.6C8.93333 7.06666 8.13333 7.06666 7.6 7.6C7.06667 8.13333 7.06667 8.93333 7.6 9.46666L14.1333 16L7.6 22.5333C7.06667 23.0667 7.06667 23.8667 7.6 24.4C8.13333 24.9333 8.93333 24.9333 9.46667 24.4L16 17.8667L22.5333 24.4C23.0667 24.9333 23.8667 24.9333 24.4 24.4C24.9333 23.8667 24.9333 23.0667 24.4 22.5333L17.8667 16L24.4 9.46666C24.9333 8.93333 24.9333 8.13333 24.4 7.6Z" fill="white"/>
</svg>
