<svg width="30" height="30" viewBox="0 0 30 30" fill="none" xmlns="http://www.w3.org/2000/svg">
<circle cx="15" cy="15" r="15" fill="#002677"/>
<mask id="mask0_253_2727" style="mask-type:alpha" maskUnits="userSpaceOnUse" x="8" y="4" width="12" height="21">
<path fill-rule="evenodd" clip-rule="evenodd" d="M8.00002 4H19.9348V24.7087H8.00002V4Z" fill="white"/>
</mask>
<g mask="url(#mask0_253_2727)">
<path fill-rule="evenodd" clip-rule="evenodd" d="M13.0951 17.8174V7.00519L8.00002 9.30241V18.0764C8.00002 19.7517 9.05358 20.8745 10.608 20.8745C12.1452 20.8745 13.0951 19.7345 13.0951 17.8174M9.12269 21.2717V21.2717C9.76169 21.4617 10.3489 21.5826 10.8671 21.5826C12.9225 21.5826 14.1832 20.46 14.1832 17.5064V6.55619L15.3405 6.00353V17.3337C15.3405 20.6499 13.8206 22.1526 11.6444 22.1526C10.7289 22.1526 9.86536 21.8417 9.12269 21.2717M9.95169 22.4462V22.4462C10.6771 22.688 11.4026 22.8434 12.0416 22.8434C14.6841 22.8434 16.4459 21.1854 16.4459 17.4374V5.55441L17.6204 5.00175V17.5411C17.6204 21.4617 15.6341 23.4652 12.8706 23.4652C11.8516 23.4652 10.8152 23.0852 9.95169 22.4462M11.3161 23.7589V23.7589C11.9725 23.9833 12.6634 24.1043 13.406 24.1043C16.5495 24.1043 18.743 21.8244 18.743 17.4892V4.56997L19.9348 3.99997V17.7136C19.9348 22.1353 17.6549 24.7087 14.4251 24.7087C13.3025 24.7087 12.2488 24.3633 11.3161 23.7589" fill="white"/>
</g>
</svg>
