<svg width="32" height="24" viewBox="0 0 32 24" fill="none" xmlns="http://www.w3.org/2000/svg">
<path fill-rule="evenodd" clip-rule="evenodd" d="M3 4.5C1.34315 4.5 0 5.84315 0 7.5V20C0 21.6569 1.34315 23 3 23H28C29.6569 23 31 21.6569 31 20V7.5C31 5.84315 29.6569 4.5 28 4.5H3ZM15.5 20.5C19.366 20.5 22.5 17.366 22.5 13.5C22.5 9.63401 19.366 6.5 15.5 6.5C11.634 6.5 8.5 9.63401 8.5 13.5C8.5 17.366 11.634 20.5 15.5 20.5ZM20.5 13.5C20.5 16.2614 18.2614 18.5 15.5 18.5C12.7386 18.5 10.5 16.2614 10.5 13.5C10.5 10.7386 12.7386 8.5 15.5 8.5C18.2614 8.5 20.5 10.7386 20.5 13.5ZM24 8C24.5523 8 25 7.55228 25 7C25 6.44772 24.5523 6 24 6C23.4477 6 23 6.44772 23 7C23 7.55228 23.4477 8 24 8Z" fill="#196ECF"/>
<path fill-rule="evenodd" clip-rule="evenodd" d="M19.9695 0C19.9695 0 21.3644 0.152832 22.0219 2.0918C22.6793 4.03076 24.5 4.5 24.5 4.5C24.5 4.5 18.4935 4.84595 15.5 4.84595C12.4935 4.84595 6.5 4.5 6.5 4.5C6.5 4.5 8.32068 4.03076 8.97815 2.0918C9.63562 0.152832 11.0305 0 11.0305 0H19.9695Z" fill="black" style="mix-blend-mode:overlay"/>
<path fill-rule="evenodd" clip-rule="evenodd" d="M19.9695 0C19.9695 0 21.3644 0.152832 22.0219 2.0918C22.6793 4.03076 24.5 4.5 24.5 4.5C24.5 4.5 18.4935 4.84595 15.5 4.84595C12.4935 4.84595 6.5 4.5 6.5 4.5C6.5 4.5 8.32068 4.03076 8.97815 2.0918C9.63562 0.152832 11.0305 0 11.0305 0H19.9695Z" fill="black" fill-opacity="0.75" style="mix-blend-mode:overlay"/>
<path fill-rule="evenodd" clip-rule="evenodd" d="M2 3C2 2.17157 2.67157 1.5 3.5 1.5H4.5C5.32843 1.5 6 2.17157 6 3V3H2V3Z" fill="black" style="mix-blend-mode:overlay"/>
<path fill-rule="evenodd" clip-rule="evenodd" d="M2 3C2 2.17157 2.67157 1.5 3.5 1.5H4.5C5.32843 1.5 6 2.17157 6 3V3H2V3Z" fill="black" fill-opacity="0.75" style="mix-blend-mode:overlay"/>
<path fill-rule="evenodd" clip-rule="evenodd" d="M3 4.5C1.34315 4.5 0 5.84315 0 7.5V20C0 21.6569 1.34315 23 3 23H28C29.6569 23 31 21.6569 31 20V7.5C31 5.84315 29.6569 4.5 28 4.5H3ZM15.5 20.5C19.366 20.5 22.5 17.366 22.5 13.5C22.5 9.63401 19.366 6.5 15.5 6.5C11.634 6.5 8.5 9.63401 8.5 13.5C8.5 17.366 11.634 20.5 15.5 20.5ZM20.5 13.5C20.5 16.2614 18.2614 18.5 15.5 18.5C12.7386 18.5 10.5 16.2614 10.5 13.5C10.5 10.7386 12.7386 8.5 15.5 8.5C18.2614 8.5 20.5 10.7386 20.5 13.5ZM24 8C24.5523 8 25 7.55228 25 7C25 6.44772 24.5523 6 24 6C23.4477 6 23 6.44772 23 7C23 7.55228 23.4477 8 24 8Z" fill="#196ECF"/>
<path fill-rule="evenodd" clip-rule="evenodd" d="M19.9695 0C19.9695 0 21.3644 0.152832 22.0219 2.0918C22.6793 4.03076 24.5 4.5 24.5 4.5C24.5 4.5 18.4935 4.84595 15.5 4.84595C12.4935 4.84595 6.5 4.5 6.5 4.5C6.5 4.5 8.32068 4.03076 8.97815 2.0918C9.63562 0.152832 11.0305 0 11.0305 0H19.9695Z" fill="#196ECF"/>
<path fill-rule="evenodd" clip-rule="evenodd" d="M2 3C2 2.17157 2.67157 1.5 3.5 1.5H4.5C5.32843 1.5 6 2.17157 6 3V3H2V3Z" fill="#196ECF"/>
</svg>
