<?xml version="1.0" standalone="no"?>
<!DOCTYPE svg PUBLIC "-//W3C//DTD SVG 1.0//EN" "http://www.w3.org/TR/2001/REC-SVG-20010904/DTD/svg10.dtd">
<svg xmlns="http://www.w3.org/2000/svg" xmlns:xlink="http://www.w3.org/1999/xlink" id="body_1" width="31" height="23">

<g transform="matrix(0.044921875 0 0 0.044921875 4.000001 -0)">
    <path d="M501.6 4.186C 494.006 -0.97000027 484.19 -1.408 476.16 3.123L476.16 3.123L12.12 267.1C 4.184 271.7 -0.5037 280.3 0.0431 289.4C 0.59 298.525 6.2771 306.56 14.7031 310.09L14.7031 310.09L168.0031 374.47L168.0031 487.97C 168.0031 496.751 172.8001 504.81 180.5031 509.03C 184.1 511 188 512 191.1 512C 195.61601 512 200.138 510.719 204.09001 508.188L204.09001 508.188L315.29 436.728L413.85 478.128C 416.834 479.378 419.991 480.003 423.147 480.003C 427.225 480.003 431.288 478.972 434.927 476.909C 441.38 473.284 445.807 466.849 446.877 459.529L446.877 459.529L510.877 27.528992C 513.1 18.44 509.1 9.373 501.6 4.186zM369.3 119.2L182.19998 328.09998L78.23 284.7L369.3 119.2zM215.1 444L215.1 394.64L261.55002 414.15002L215.1 444zM404.8 421.9L228.19998 347.71L452.8 98.20999L404.8 421.9z" stroke="none" fill="#000000" fill-rule="nonzero" />
</g>
</svg>