<svg width="28" height="28" viewBox="0 0 28 28" fill="none" xmlns="http://www.w3.org/2000/svg">
<mask id="mask0_0_7511" style="mask-type:alpha" maskUnits="userSpaceOnUse" x="0" y="0" width="28" height="28">
<rect width="28" height="28" fill="white"/>
</mask>
<g mask="url(#mask0_0_7511)">
<path d="M22.3596 8.73692C22.4184 8.93409 22.4275 8.84808 22.3813 8.99422L14.5481 23.1701C13.7926 24.5386 12.5042 25.464 10.9651 25.8048C9.7792 26.0673 8.41936 25.8857 7.29658 25.312C4.73257 24.0015 3.78255 20.9173 5.18206 18.3844L12.8518 4.50395C13.3576 3.58868 14.1923 2.91036 15.2003 2.59581C16.208 2.28136 17.2722 2.36717 18.1915 2.8372C20.0918 3.8082 20.7881 6.13545 19.7439 8.02508C19.7084 8.08957 18.5056 10.2666 16.5215 13.8574C15.8161 15.1335 15.0609 16.5009 14.3053 17.8681C13.8772 18.6429 13.8772 18.6429 13.575 19.1896C13.3483 19.5999 13.3483 19.5999 13.2981 19.6909C12.5422 21.0596 11.1044 21.6402 9.81566 20.9812C9.19364 20.6633 8.81263 20.172 8.59988 19.4609C8.39528 18.7769 8.47736 18.0468 8.83061 17.408L13.9631 8.1586C14.0269 8.0437 14.1723 7.99853 14.2878 8.05782L15.4148 8.63668C15.5304 8.69597 15.5723 8.83709 15.5086 8.952L10.3766 18.1998C10.2506 18.4278 10.2216 18.6873 10.2949 18.9319C10.3808 19.2191 10.4666 19.3408 10.6656 19.4425C11.0717 19.6498 11.4455 19.4536 11.751 18.9007C11.8012 18.8096 11.8012 18.8096 12.028 18.3994C12.33 17.8524 12.33 17.8524 12.7581 17.0777C13.5137 15.7104 14.2691 14.3433 14.9742 13.0672C16.9586 9.47606 18.1614 7.29934 18.197 7.23527C18.4761 6.73024 18.5405 6.156 18.3786 5.61534C18.217 5.0751 17.8492 4.63552 17.3415 4.3762C16.8345 4.11707 16.2493 4.07017 15.693 4.24326C15.1368 4.41688 14.678 4.78967 14.399 5.29438L6.72892 19.1748C5.79969 20.8572 6.43428 22.8979 8.1466 23.773C9.88012 24.6589 12.0828 24.0425 13.001 22.3798L20.8341 8.20379C20.8979 8.08888 21.0429 8.04342 21.1586 8.1026L22.2871 8.67891L22.3596 8.73692Z" fill="#002677"/>
</g>
</svg>
